<?xml version="1.0" encoding="utf-8"?>
<!-- Generator: Adobe Illustrator 25.0.1, SVG Export Plug-In . SVG Version: 6.00 Build 0)  -->
<svg version="1.1" id="Layer_1" xmlns="http://www.w3.org/2000/svg" xmlns:xlink="http://www.w3.org/1999/xlink" x="0px" y="0px"
	 viewBox="0 0 244.4 48.5" style="enable-background:new 0 0 244.4 48.5;" xml:space="preserve">
<style type="text/css">
	.st0{fill:#9F2842;}
	.st1{fill:#3D4543;}
</style>
<g>
	<polygon class="st0" points="3.5,23.8 10.7,30.9 13.6,27.6 3.5,16.1 	"/>
	<path class="st0" d="M43.1,17.2l-5.3,5.3v-7.8L25,2H11.8v3.2L3.5,9.4v4.4h6.6l12.1,13.7l0,0l0,0l0,0l0,0l-8.5,9.6l1.8,9.8h22.3
		l6.5-28.5L43.1,17.2z M36.8,27.6L36.8,27.6L24.6,41.3H16l12.1-13.7L16,13.8h8.6L36.8,27.6L36.8,27.6L36.8,27.6L36.8,27.6z"/>
</g>
<g>
	<path class="st1" d="M51.4,5.1h1.5v7.6c0,2.6,0.8,3.3,2.2,3.3s2.2-0.7,2.2-3.3V5.1h1.5v7.6c0,3.3-1.2,4.6-3.7,4.6s-3.7-1.3-3.7-4.6
		V5.1z"/>
	<path class="st1" d="M69.7,5.1V17h-2.1L62.9,6.7l0,0V17h-1.4V5.1h2.1l4.6,10.2l0,0V5.1H69.7z"/>
	<path class="st1" d="M74,17h-1.5V5.1H74V17z"/>
	<path class="st1" d="M81.4,17h-1.8L76.1,5.1h1.6l2.7,10.5l0,0l2.8-10.5h1.6L81.4,17z"/>
	<path class="st1" d="M86.6,17V5.1h6.1v1.3h-4.6v3.8h4.3v1.3h-4.3v4.1h4.7V17H86.6z"/>
	<path class="st1" d="M96.6,11.5V17h-1.5V5.1h4.1c2.1,0,2.9,1.5,2.9,3c0,1.4-0.8,2.5-2.2,2.7l0,0c1.4,0.2,1.9,0.7,1.9,3.1
		c0,0.5,0.2,2.4,0.4,3.1h-1.6c-0.4-0.8-0.3-2.4-0.5-4c-0.1-1.5-1.3-1.5-1.8-1.5H96.6z M96.6,10.2h2.3c1.1,0,1.6-0.9,1.6-2
		c0-0.9-0.4-1.8-1.6-1.8h-2.3V10.2z"/>
	<path class="st1" d="M105.7,13.5v0.3c0,1.6,1,2.1,2,2.1c1.2,0,2.1-0.5,2.1-1.9c0-2.6-5.3-2.3-5.3-5.9c0-2.1,1.5-3.2,3.5-3.2
		c2.2,0,3.4,1.1,3.3,3.5h-1.6c0-1.3-0.4-2.2-1.8-2.2c-0.9,0-1.8,0.5-1.8,1.7c0,2.6,5.3,2.2,5.3,6c0,2.5-1.7,3.3-3.7,3.3
		c-3.5,0-3.5-2.7-3.5-3.8L105.7,13.5L105.7,13.5z"/>
	<path class="st1" d="M115.4,17h-1.5V5.1h1.5V17z"/>
	<path class="st1" d="M125.2,5.1v1.3h-3.1V17h-1.5V6.4h-3.1V5.1H125.2z"/>
	<path class="st1" d="M133,5.1h1.5l-3.2,7.4V17h-1.5v-4.5l-3.2-7.4h1.7l2.3,5.8L133,5.1z"/>
	<path class="st1" d="M139.9,12.7V8.8c0-2.4,1.2-3.9,3.7-3.9s3.7,1.5,3.7,3.9v3.9c0,3.3-1.2,4.6-3.7,4.6
		C141.2,17.3,139.9,16,139.9,12.7z M145.9,12.7v-4c0-2.5-1.7-2.6-2.2-2.6s-2.2,0.1-2.2,2.6v4c0,2.6,0.8,3.3,2.2,3.3
		C145.1,16,145.9,15.3,145.9,12.7z"/>
	<path class="st1" d="M149.4,17V5.1h5.9v1.3H151v3.8h4.2v1.3H151V17H149.4z"/>
	<path class="st1" d="M159.6,5.1h1.6l2.2,10.3l0,0l2.4-10.3h2l2.2,10.3l0,0l2.4-10.3h1.6L170.9,17H169l-2.3-10.3l0,0L164.3,17h-1.8
		L159.6,5.1z"/>
	<path class="st1" d="M177.3,17h-1.5V5.1h1.5V17z"/>
	<path class="st1" d="M181.5,13.5v0.3c0,1.6,1,2.1,2,2.1c1.2,0,2.1-0.5,2.1-1.9c0-2.6-5.3-2.3-5.3-5.9c0-2.1,1.5-3.2,3.5-3.2
		c2.2,0,3.4,1.1,3.3,3.5h-1.6c0-1.3-0.4-2.2-1.8-2.2c-0.9,0-1.8,0.5-1.8,1.7c0,2.6,5.3,2.2,5.3,6c0,2.5-1.7,3.3-3.7,3.3
		c-3.5,0-3.5-2.7-3.5-3.8L181.5,13.5L181.5,13.5z"/>
	<path class="st1" d="M194.9,8.4c0-0.7,0-1.4-0.3-1.7c-0.3-0.4-1-0.5-1.3-0.5c-1.3,0-1.7,0.8-1.8,0.9c0,0.1-0.3,0.4-0.3,2.5v3.2
		c0,2.9,1,3.3,2.1,3.3c0.5,0,1.9-0.2,1.9-2.5h1.6c0.1,3.8-2.6,3.8-3.4,3.8c-1.5,0-3.8-0.1-3.8-4.7V9.2c0-3.4,1.5-4.3,3.8-4.3
		c2.4,0,3.3,1.2,3.1,3.5H194.9z"/>
	<path class="st1" d="M198.7,12.7V8.8c0-2.4,1.2-3.9,3.7-3.9s3.7,1.5,3.7,3.9v3.9c0,3.3-1.2,4.6-3.7,4.6
		C199.9,17.3,198.7,16,198.7,12.7z M204.6,12.7v-4c0-2.5-1.7-2.6-2.2-2.6s-2.2,0.1-2.2,2.6v4c0,2.6,0.8,3.3,2.2,3.3
		C203.9,16,204.6,15.3,204.6,12.7z"/>
	<path class="st1" d="M216.9,5.1V17h-2.1l-4.7-10.3l0,0V17h-1.4V5.1h2.1l4.6,10.2l0,0V5.1H216.9z"/>
	<path class="st1" d="M220.5,13.5v0.3c0,1.6,1,2.1,2,2.1c1.2,0,2.1-0.5,2.1-1.9c0-2.6-5.3-2.3-5.3-5.9c0-2.1,1.5-3.2,3.5-3.2
		c2.2,0,3.4,1.1,3.3,3.5h-1.6c0-1.3-0.4-2.2-1.8-2.2c-0.9,0-1.8,0.5-1.8,1.7c0,2.6,5.3,2.2,5.3,6c0,2.5-1.7,3.3-3.7,3.3
		c-3.5,0-3.5-2.7-3.5-3.8L220.5,13.5L220.5,13.5z"/>
	<path class="st1" d="M230.2,17h-1.5V5.1h1.5V17z"/>
	<path class="st1" d="M241.7,5.1V17h-2.1l-4.7-10.3l0,0V17h-1.4V5.1h2.1l4.6,10.2l0,0V5.1H241.7z"/>
</g>
<g>
	<path class="st1" d="M50.9,47.1V21.5h9.5c4.1,0,7.5,1.2,7.5,6.6c0,2.9-1.5,5.1-4.4,5.6v0.1c3.8,0.5,4.8,3,4.8,6.5
		c0,6.5-5.6,6.8-7.9,6.8H50.9z M56.3,31.9h3.6c1.2,0,2.8-0.8,2.8-3.3c0-1.9-1.3-3.3-3.1-3.3h-3.3V31.9z M56.3,43.2h3
		c1.1,0,3.7,0,3.7-3.6c0-2.3-0.9-3.7-3.6-3.7h-3.1C56.3,35.9,56.3,43.2,56.3,43.2z"/>
	<path class="st1" d="M71.6,34.3c0-6.8,0-13.2,8.8-13.2s8.8,6.5,8.8,13.2s0,13.2-8.8,13.2S71.6,41,71.6,34.3z M83.8,34.3
		c0-6.6-0.4-9.4-3.4-9.4S77,27.7,77,34.3s0.4,9.4,3.4,9.4S83.8,40.8,83.8,34.3z"/>
	<path class="st1" d="M92.6,34.3c0-6.8,0-13.2,8.8-13.2s8.8,6.5,8.8,13.2s0,13.2-8.8,13.2S92.6,41,92.6,34.3z M104.8,34.3
		c0-6.6-0.4-9.4-3.4-9.4S98,27.7,98,34.3s0.4,9.4,3.4,9.4S104.8,40.8,104.8,34.3z"/>
	<path class="st1" d="M129.1,21.5v4.3h-6v21.4h-5.4V25.7h-6v-4.3L129.1,21.5L129.1,21.5z"/>
	<path class="st1" d="M137.8,34.3c0-6.8,0-13.2,8.8-13.2c5.5,0,7.7,3,7.5,8.5h-5.3c0-3.4-0.6-4.7-2.2-4.7c-3,0-3.4,2.8-3.4,9.4
		s0.4,9.4,3.4,9.4c2.5,0,2.4-3.2,2.5-5.2h5.3c0,6.9-2.7,9.1-7.7,9.1C137.8,47.5,137.8,41,137.8,34.3z"/>
	<path class="st1" d="M155.1,47.1l7.1-25.6h7.1l7,25.6h-5.6l-1.4-5.7H162l-1.5,5.7H155.1z M165.4,26.4L165.4,26.4l-2.5,11.1h5.1
		L165.4,26.4z"/>
	<path class="st1" d="M177.9,47.1V21.5h8.6l4,17.4h0.1l4.3-17.4h8.3v25.6H198V27.3h-0.1L193,47.1h-5.1l-4.7-19.8h-0.1v19.8H177.9z"
		/>
	<path class="st1" d="M206.9,21.5h9.7c4.9,0,6.8,3,6.8,7.7c0,2.9-0.9,7.5-7.1,7.5h-4v10.4h-5.4V21.5z M212.3,32.7h3
		c1.6,0,2.7-1.7,2.7-3.4c0-2.1-0.6-3.9-3-3.9h-2.7V32.7z"/>
	<path class="st1" d="M232.9,47.5c-6.6,0-7.9-3.9-7.6-8.3h5.4c0,2.4,0.1,4.5,3.1,4.5c1.8,0,2.7-1.2,2.7-2.9
		c0-4.6-10.8-4.9-10.8-12.5c0-4,1.9-7.2,8.5-7.2c5.2,0,7.8,2.3,7.5,7.7h-5.2c0-1.9-0.3-3.9-2.5-3.9c-1.7,0-2.8,1-2.8,2.7
		c0,4.9,10.8,4.4,10.8,12.5C241.8,46.7,237,47.5,232.9,47.5z"/>
</g>
</svg>
